<!-- Création d'un favicon SVG simple pour Harmonie Services -->
<svg xmlns="http://www.w3.org/2000/svg" width="32" height="32" viewBox="0 0 32 32">
  <rect width="32" height="32" rx="6" fill="#4e8cff"/>
  <path d="M9 10C10.6569 10 12 11.3431 12 13C12 14.6569 10.6569 16 9 16C7.34315 16 6 14.6569 6 13C6 11.3431 7.34315 10 9 10Z" fill="white"/>
  <path d="M23 10C24.6569 10 26 11.3431 26 13C26 14.6569 24.6569 16 23 16C21.3431 16 20 14.6569 20 13C20 11.3431 21.3431 10 23 10Z" fill="white"/>
  <path d="M16 14C17.6569 14 19 15.3431 19 17C19 18.6569 17.6569 20 16 20C14.3431 20 13 18.6569 13 17C13 15.3431 14.3431 14 16 14Z" fill="white"/>
  <path d="M9 18C10.6569 18 12 19.3431 12 21C12 22.6569 10.6569 24 9 24C7.34315 24 6 22.6569 6 21C6 19.3431 7.34315 18 9 18Z" fill="white"/>
  <path d="M23 18C24.6569 18 26 19.3431 26 21C26 22.6569 24.6569 24 23 24C21.3431 24 20 22.6569 20 21C20 19.3431 21.3431 18 23 18Z" fill="white"/>
</svg>
